<svg xmlns="http://www.w3.org/2000/svg" width="480" height="160" viewBox="0 0 480 160" preserveAspectRatio="xMidYMid slice" role="img" aria-label="Manila bayfront skyline at dusk">
  <defs>
    <linearGradient id="sky" x1="0" y1="0" x2="0" y2="1">
      <stop offset="0" stop-color="#3a2a56"/>
      <stop offset="0.5" stop-color="#7a4f72"/>
      <stop offset="1" stop-color="#e08a5c"/>
    </linearGradient>
    <linearGradient id="bldg" x1="0" y1="0" x2="0" y2="1">
      <stop offset="0" stop-color="#3a2c52"/>
      <stop offset="1" stop-color="#1a1226"/>
    </linearGradient>
  </defs>
  <rect width="480" height="160" fill="url(#sky)"/>
  <circle cx="118" cy="72" r="28" fill="#ffb469" opacity="0.8"/>
  <circle cx="118" cy="72" r="28" fill="none" stroke="#ffd9a8" stroke-width="1" opacity="0.5"/>
  <!-- palm silhouettes left -->
  <g fill="#160f1e">
    <rect x="61" y="98" width="6" height="62"/>
    <path d="M64 96 c-16 -3 -26 3 -32 10 M64 96 c16 -3 26 3 32 10 M64 96 c-7 -13 -1 -22 6 -27 M64 96 c9 -11 5 -22 -2 -27" stroke="#160f1e" stroke-width="3" fill="none"/>
  </g>
  <g fill="url(#bldg)">
    <rect x="230" y="100" width="20" height="60"/>
    <rect x="256" y="84" width="22" height="76"/>
    <rect x="284" y="96" width="18" height="64"/>
    <rect x="308" y="72" width="24" height="88"/>
    <path d="M338 66 l12 -12 l12 12 v94 h-24 Z"/>
    <rect x="368" y="80" width="22" height="80"/>
    <rect x="396" y="92" width="20" height="68"/>
    <rect x="420" y="104" width="22" height="56"/>
    <rect x="444" y="114" width="20" height="46"/>
  </g>
  <g fill="#c79ad0" opacity="0.5">
    <rect x="330" y="72" width="2" height="88"/><rect x="362" y="54" width="2" height="106"/><rect x="390" y="80" width="2" height="80"/>
  </g>
  <!-- bay water -->
  <rect y="140" width="480" height="20" fill="#241528"/>
  <g fill="#ffb469" opacity="0.45"><rect x="118" y="144" width="10" height="3"/><rect x="116" y="150" width="14" height="2"/></g>
  <g fill="#bcd2ff" opacity="0.85">
    <rect x="344" y="76" width="3" height="6"/><rect x="316" y="88" width="3" height="5"/><rect x="374" y="94" width="3" height="5"/>
    <rect x="262" y="96" width="3" height="5"/><rect x="344" y="104" width="3" height="6"/>
  </g>
</svg>
