<svg xmlns="http://www.w3.org/2000/svg" viewBox="0 0 200 200" width="200" height="200">
  <defs>
    <linearGradient id="bg" x1="0%" y1="0%" x2="100%" y2="100%">
      <stop offset="0%" style="stop-color:#0f172a"/>
      <stop offset="100%" style="stop-color:#1e1b4b"/>
    </linearGradient>
    <linearGradient id="glow" x1="0%" y1="0%" x2="100%" y2="100%">
      <stop offset="0%" style="stop-color:#6366f1;stop-opacity:1"/>
      <stop offset="50%" style="stop-color:#818cf8;stop-opacity:1"/>
      <stop offset="100%" style="stop-color:#38bdf8;stop-opacity:1"/>
    </linearGradient>
    <filter id="blur1">
      <feGaussianBlur stdDeviation="6"/>
    </filter>
    <filter id="blur2">
      <feGaussianBlur stdDeviation="2"/>
    </filter>
  </defs>
  <rect width="200" height="200" rx="38" fill="url(#bg)"/>
  <ellipse cx="100" cy="100" rx="55" ry="30" fill="none" stroke="url(#glow)" stroke-width="1.5" opacity="0.18" filter="url(#blur1)"/>
  <path d="M30 100 Q65 62 100 100 Q135 138 170 100" fill="none" stroke="url(#glow)" stroke-width="2.5" stroke-linecap="round" opacity="0.9"/>
  <path d="M30 118 Q65 80 100 118 Q135 156 170 118" fill="none" stroke="url(#glow)" stroke-width="1.5" stroke-linecap="round" opacity="0.45"/>
  <path d="M30 82 Q65 44 100 82 Q135 120 170 82" fill="none" stroke="url(#glow)" stroke-width="1.5" stroke-linecap="round" opacity="0.45"/>
  <circle cx="30" cy="100" r="4" fill="#6366f1" opacity="0.9"/>
  <circle cx="65" cy="73" r="3" fill="#818cf8" opacity="0.85"/>
  <circle cx="100" cy="100" r="5" fill="#a5b4fc" opacity="1"/>
  <circle cx="135" cy="127" r="3" fill="#818cf8" opacity="0.85"/>
  <circle cx="170" cy="100" r="4" fill="#38bdf8" opacity="0.9"/>
  <line x1="30" y1="100" x2="65" y2="73" stroke="url(#glow)" stroke-width="1" opacity="0.5"/>
  <line x1="65" y1="73" x2="100" y2="100" stroke="url(#glow)" stroke-width="1" opacity="0.5"/>
  <line x1="100" y1="100" x2="135" y2="127" stroke="url(#glow)" stroke-width="1" opacity="0.5"/>
  <line x1="135" y1="127" x2="170" y2="100" stroke="url(#glow)" stroke-width="1" opacity="0.5"/>
  <circle cx="100" cy="100" r="6" fill="#6366f1" opacity="0.25" filter="url(#blur2)"/>
</svg>
